# xmcd CD database file
#
# Track frame offsets:
#	150
#	16203
#	30351
#	45243
#	60302
#	75693
#	90152
#	105050
#	120988
#	135885
#	150394
#	165715
#	181193
#	201836
#	216479
#	230225
#	244913
#	258930
#	274362
#
# Disc length: 3858 seconds
#
# Revision: 1
# Processed by: cddbd v1.5.2PL0 Copyright (c) Steve Scherf et al.
# Submitted via: CDex 1.70beta2
#
DISCID=e20f1013
DTITLE=Jon Katz - A Good Dog [CD4]
DYEAR=2006
DGENRE=Audiobook
TTITLE0=A Good Dog [CD4] - Track 01
TTITLE1=A Good Dog [CD4] - Track 02
TTITLE2=A Good Dog [CD4] - Track 03
TTITLE3=A Good Dog [CD4] - Track 04
TTITLE4=A Good Dog [CD4] - Track 05
TTITLE5=A Good Dog [CD4] - Track 06
TTITLE6=A Good Dog [CD4] - Track 07
TTITLE7=A Good Dog [CD4] - Track 08
TTITLE8=A Good Dog [CD4] - Track 09
TTITLE9=A Good Dog [CD4] - Track 10
TTITLE10=A Good Dog [CD4] - Track 11
TTITLE11=A Good Dog [CD4] - Track 12
TTITLE12=A Good Dog [CD4] - Track 13
TTITLE13=A Good Dog [CD4] - Track 14
TTITLE14=A Good Dog [CD4] - Track 15
TTITLE15=A Good Dog [CD4] - Track 16
TTITLE16=A Good Dog [CD4] - Track 17
TTITLE17=A Good Dog [CD4] - Track 18
TTITLE18=A Good Dog [CD4] - Track 19
EXTD=A Good Dog by Joh Katz 6 CDs\nread by Tom Stechschulte recorded books\n2006 Jungle Country YEAR: 2006
EXTT0=
EXTT1=
EXTT2=
EXTT3=
EXTT4=
EXTT5=
EXTT6=
EXTT7=
EXTT8=
EXTT9=
EXTT10=
EXTT11=
EXTT12=
EXTT13=
EXTT14=
EXTT15=
EXTT16=
EXTT17=
EXTT18=
PLAYORDER=
